<svg
  xmlns="http://www.w3.org/2000/svg"
  viewBox="0 0 1792 1792"
  preserveAspectRatio="none"
  width="448"
  height="448"
  fill="none"
>
  <style xmlns="http://www.w3.org/2000/svg">
    @media (prefers-color-scheme: dark) {
      .a {
        fill: #5fb28b;
      }
    }
  </style>
  <path
    class="a"
    fill="#1a7551"
    d="M 917.426 20.5824 C 1026.04 19.1916 1137.91 21.1748 1246.79 21.0185 L 683.968 1565.22 C 662.172 1632.1 633.661 1704.5 609.446 1771.38 C 600.979 1644.68 597.512 1513.12 592.7 1386 L 568.642 799.777 L 552.633 413.502 L 548.487 310.43 C 547.752 292.314 546.067 264.673 547.178 247.162 C 556.939 238.168 589.896 217.771 602.246 209.584 L 713.498 135.627 C 769.311 98.3772 825.278 59.6329 882.007 23.7207 C 888.442 19.6472 908.736 21.1497 917.426 20.5824 z M 910.335 274.385 C 906.624 283.239 904.124 300.551 902.293 310.468 C 899.619 325.087 896.793 339.679 893.815 354.241 L 844.684 610.126 L 739.532 1156.93 C 726.99 1223.3 711.265 1294.51 700.5 1360.53 L 701.644 1362.22 C 706.496 1351.38 712.273 1330.91 716.737 1318.57 L 753.987 1217.23 L 868.375 903.618 L 1069 355.004 L 1139.47 161.381 C 1145.66 144.22 1153.16 126.308 1159 109.479 C 1157.88 107.838 1158.19 108.165 1157.79 107.862 C 1102.15 144.051 1044.67 184.165 989.245 221.353 L 938.935 254.672 C 931.137 259.805 916.767 268.673 910.335 274.385 z"
  />
</svg>
